<mxfile host="app.diagrams.net" modified="2023-10-20T14:51:06.908Z" agent="Mozilla/5.0 (Windows NT 10.0; Win64; x64) AppleWebKit/537.36 (KHTML, like Gecko) Chrome/116.0.0.0 Safari/537.36 OPR/102.0.0.0" version="22.0.6" etag="_OsukjkgPa9uMpOPf8IU" type="github">
  <diagram name="Page-1" id="pQ2-1k1l279IAzSLrwsz">
    <mxGraphModel>
      <root>
        <mxCell id="0" />
        <mxCell id="1" parent="0" />
      </root>
    </mxGraphModel>
  </diagram>
</mxfile>
